<svg width="39" height="48" viewBox="0 0 39 48" fill="none" xmlns="http://www.w3.org/2000/svg">
<path fill-rule="evenodd" clip-rule="evenodd" d="M28.4099 0.84222C26.4332 1.03272 24.1125 2.17766 22.4842 3.76572C20.7423 5.46464 19.5652 7.82631 19.3589 10.0363C19.3272 10.3757 19.3417 11.1833 19.3836 11.4089L19.4119 11.5613L19.6081 11.5892C19.8944 11.6298 20.599 11.6054 20.9609 11.5423C22.3421 11.3015 23.7804 10.6217 25.0659 9.6023C25.4546 9.29407 26.1733 8.56668 26.5271 8.12338C27.0422 7.47817 27.4795 6.78867 27.8325 6.06516C28.3466 5.01142 28.6513 4.01458 28.8178 2.84062C28.866 2.50133 28.8881 1.44416 28.8528 1.17117C28.8041 0.794241 28.8133 0.816264 28.7053 0.819786C28.6532 0.821478 28.5203 0.831586 28.4099 0.84222ZM27.5244 12.1528C26.9921 12.1842 26.2702 12.3005 25.6376 12.4569C24.8049 12.6627 24.18 12.8751 22.7104 13.4517C21.5181 13.9196 21.1483 14.05 20.6686 14.1714C20.0601 14.3254 19.5264 14.3216 18.8684 14.1584C18.4025 14.0429 18.062 13.9219 16.8375 13.4364C15.6592 12.9691 15.2295 12.8136 14.6719 12.6523C13.3141 12.2596 12.2306 12.1722 10.8642 12.3452C9.3909 12.5318 7.9654 13.0201 6.67915 13.7787C4.17848 15.2537 2.31028 17.6359 1.30439 20.6322C0.561437 22.8452 0.301323 25.354 0.528963 28.111C0.737414 30.6354 1.35454 33.315 2.31182 35.8522C2.92629 37.4808 3.75728 39.1964 4.5826 40.5403C5.33717 41.769 6.85801 43.8319 7.80287 44.9083C9.56039 46.9106 11.1904 47.7633 13.0117 47.6333C13.9707 47.5649 14.5787 47.394 16.0549 46.778C17.0072 46.3807 17.4049 46.2321 17.8975 46.0897C19.3867 45.659 21.0695 45.6211 22.5275 45.9855C23.1376 46.138 23.4888 46.265 24.5285 46.7091C25.8181 47.26 26.3121 47.4157 27.1241 47.5272C27.4847 47.5767 28.2578 47.596 28.5649 47.5631C29.9841 47.411 31.2792 46.7064 32.5676 45.3853C33.3538 44.5791 34.1492 43.5655 35.2929 41.9125C36.5537 40.0901 37.6765 37.8655 38.3746 35.8064C38.5867 35.1807 38.5881 35.1748 38.5201 35.1537C38.2899 35.0825 37.409 34.5991 36.9464 34.2901C34.3035 32.5246 32.7078 29.9793 32.363 26.979C32.0761 24.4834 32.6266 22.1098 33.9619 20.0839C34.736 18.9096 35.8546 17.7898 37.0551 16.9875C37.2091 16.8845 37.3352 16.7892 37.3352 16.7756C37.3352 16.7369 37.0213 16.3167 36.7487 15.9907C34.8215 13.6854 32.0978 12.3606 28.8736 12.1605C28.5265 12.139 27.8264 12.135 27.5244 12.1528Z" fill="#2D2D2D"/>
</svg>
