<svg width="215" height="35" viewBox="0 0 215 35" fill="none" xmlns="http://www.w3.org/2000/svg">
<path fill-rule="evenodd" clip-rule="evenodd" d="M174.536 12.4079V0.761357L174.538 0.75874C174.902 0.640967 179.699 0.604326 180.417 0.703779C180.516 1.05972 180.534 33.7014 180.427 34.1908H174.557C174.547 33.8131 174.548 33.4382 174.549 33.0532V33.0519C174.55 32.6903 174.551 32.3197 174.544 31.9295L174.501 31.9701L174.474 31.9952L174.421 32.0445C174.361 32.1002 174.315 32.1423 174.274 32.1886C172.908 33.7354 171.186 34.5441 169.129 34.6331C167.14 34.7194 165.229 34.3871 163.455 33.4501C161.329 32.3299 159.929 30.5764 159.047 28.3754C158.364 26.6716 158.076 24.8893 158.016 23.0677C157.945 20.9399 158.163 18.8435 158.867 16.8178C159.581 14.7712 160.72 13.0255 162.512 11.7536C163.766 10.8611 165.164 10.3167 166.682 10.1021C167.372 10.0053 168.074 9.91891 168.77 9.92938C170.906 9.96602 172.785 10.67 174.313 12.2011C174.35 12.24 174.39 12.276 174.456 12.336L174.459 12.3386L174.536 12.4079ZM171.693 29.0742C173.013 28.4905 173.874 27.4541 174.436 26.156L174.434 26.1586C174.975 24.9128 175.146 23.5964 175.172 21.9397C175.163 21.8455 175.154 21.7294 175.144 21.5973V21.5971L175.144 21.5955V21.5953L175.144 21.5937V21.5935L175.144 21.5919C175.117 21.2254 175.08 20.7376 175.002 20.2568C174.771 18.854 174.279 17.5611 173.285 16.4985C171.604 14.7058 168.856 14.4257 166.862 15.8626C165.831 16.6058 165.179 17.6265 164.781 18.8148C164.166 20.6494 164.119 22.5259 164.46 24.4155C164.656 25.5069 165.043 26.525 165.705 27.4279C167.111 29.3411 169.547 30.0216 171.693 29.0742ZM47.1046 26.5148C48.4995 21.1469 49.8945 15.7764 51.2947 10.385V10.3824L52.7616 10.3412C54.137 10.3026 55.5125 10.264 56.9321 10.2253L56.5135 11.5383C54.1134 19.0648 51.7267 26.5494 49.3423 34.0339H44.155C42.8101 29.0049 41.4652 23.9837 40.1203 18.9626L40.1193 18.9589C40.0879 18.9615 40.0539 18.9641 40.0198 18.9641L39.0649 22.5643C38.0379 26.4363 37.0104 30.3096 35.9815 34.1936H30.7995L30.1471 32.1473C27.8411 24.9135 25.5323 17.6711 23.2148 10.3981H29.1532C30.5482 15.7712 31.9432 21.1417 33.3381 26.5121C33.3495 26.513 33.3608 26.5142 33.3722 26.5153C33.3948 26.5177 33.4175 26.52 33.4402 26.52C34.1098 23.8441 34.7801 21.1675 35.4511 18.4884L35.461 18.4486C36.132 15.7692 36.8036 13.0872 37.4759 10.4007H42.9668C43.5593 12.7684 44.1518 15.1342 44.7441 17.499L44.7542 17.5392L44.7618 17.5695L44.7622 17.5711L44.7626 17.5727C45.5089 20.5523 46.2548 23.5305 46.9999 26.5095C47.0339 26.5121 47.0705 26.5148 47.1046 26.5148ZM78.6676 12.9978L78.6631 13.0155C78.4339 13.9044 78.2051 14.7921 77.977 15.6791C77.825 16.2719 77.674 16.8646 77.5232 17.4572L77.5224 17.4602L77.5223 17.4605L77.5223 17.4607L77.5222 17.4609L77.5221 17.4611C77.211 18.6833 76.8999 19.905 76.5794 21.1255C76.4751 21.5221 76.3729 21.9193 76.2707 22.3166L76.2702 22.3187L76.2701 22.3191C75.9084 23.7249 75.5465 25.1321 75.0876 26.5169C74.4148 23.8049 73.7421 21.0923 73.0693 18.3796L73.0577 18.3327C72.3891 15.6369 71.7205 12.941 71.0519 10.2459H65.5636C64.2603 15.6975 62.9648 21.1229 61.6692 26.551C61.6352 26.5536 61.6038 26.5562 61.5698 26.5614C61.029 25.0189 60.4889 23.4758 59.9487 21.9326L59.9418 21.9128C59.4046 20.3782 58.8675 18.8436 58.3297 17.3097H58.2303C58.1812 17.4332 58.1293 17.5559 58.0774 17.6787L58.0773 17.679L58.0772 17.679L58.0772 17.6791L58.0772 17.6792L58.0772 17.6792L58.0771 17.6793L58.0771 17.6794L58.0771 17.6794C57.963 17.9492 57.8489 18.2192 57.7644 18.4979C57.4679 19.4885 57.1772 20.4814 56.8867 21.4741L56.886 21.4763L56.886 21.4765C56.6279 22.3582 56.3698 23.2398 56.1077 24.1196C56.0318 24.3761 56.0344 24.6038 56.1156 24.8603C56.8053 27.0504 57.4908 29.2434 58.1761 31.4361L58.1765 31.4373L58.1769 31.4384L58.179 31.4452C58.4263 32.2366 58.6737 33.0278 58.9212 33.8189C58.952 33.9152 58.9927 34.0087 59.0309 34.0962L59.031 34.0963L59.0565 34.1552L59.0704 34.1879H64.2236C65.2636 30.2694 66.299 26.3632 67.3332 22.4611L68.2672 18.9376C68.2868 18.9376 68.3076 18.94 68.328 18.9424L68.3394 18.9437L68.3562 18.9454C69.109 21.787 69.8626 24.6278 70.6161 27.4683C71.2117 29.7136 71.8073 31.9586 72.4024 34.2036H77.6865C78.0058 33.5153 85.2345 10.5782 85.2423 10.2328H79.3876H79.3798C79.1423 11.1562 78.9048 12.0777 78.6676 12.9978ZM106.452 15.3411C106.607 14.7327 106.762 14.1246 106.918 13.5174V13.5252C107.057 12.9885 107.197 12.4524 107.337 11.9151L107.34 11.9012C107.484 11.3505 107.627 10.7985 107.771 10.2432H113.683C113.666 10.3067 113.651 10.3677 113.637 10.4267C113.608 10.5407 113.582 10.6475 113.547 10.751C112.78 13.1235 112.014 15.4966 111.247 17.8697C110.48 20.2429 109.713 22.616 108.946 24.9885C108.474 26.4462 108.002 27.9045 107.53 29.3628C107.059 30.8213 106.587 32.2799 106.114 33.7378L106.094 33.8007L106.07 33.8785L106.07 33.8792C106.015 34.0537 105.988 34.1415 105.928 34.1853C105.868 34.2297 105.775 34.229 105.587 34.2277C105.551 34.2275 105.513 34.2272 105.471 34.2272H101.171C101.1 34.2272 101.029 34.2229 100.943 34.2177C100.895 34.2149 100.842 34.2117 100.783 34.2089C99.4354 29.1211 98.0875 24.0332 96.737 18.9454L96.6507 18.9402C95.8153 22.0871 94.9809 25.234 94.145 28.3866C93.6323 30.3204 93.1189 32.2564 92.6045 34.1958H87.4225L87.309 33.8554L87.3081 33.8529L87.3045 33.8421C87.0803 33.1697 86.8582 32.5037 86.6399 31.8377C86.4185 31.1643 86.1975 30.4907 85.9766 29.817L85.9748 29.8117C85.4389 28.1779 84.9029 26.544 84.3603 24.9126C84.2661 24.6273 84.2609 24.3735 84.3551 24.0856C84.6561 23.1565 84.9525 22.2254 85.2489 21.2943C85.5453 20.3633 85.8417 19.4322 86.1426 18.5031C86.2735 18.0974 86.4567 17.7101 86.7132 17.3097L89.9559 26.5667L89.9632 26.5661C89.9944 26.5637 90.0236 26.5614 90.0527 26.5614C90.8045 23.4117 91.5572 20.262 92.3103 17.1107L92.3269 17.0411C92.8686 14.7744 93.4105 12.5069 93.9524 10.238H99.4354L103.471 26.5065C103.797 25.6782 104.014 24.8236 104.231 23.97C104.288 23.7474 104.344 23.525 104.403 23.303C104.591 22.59 104.775 21.8758 104.958 21.162C105.055 20.7832 105.153 20.4046 105.251 20.0263C105.528 18.9506 105.806 17.875 106.08 16.7967C106.205 16.3114 106.328 15.8261 106.452 15.3411ZM20.2024 16.1846C19.4251 13.3266 17.6559 11.4003 14.8137 10.5026C13.8558 10.199 12.8691 10.0577 11.8667 9.97396C10.2283 9.83524 8.62399 9.95564 7.06414 10.4843C4.44957 11.3715 2.60445 13.0596 1.72769 15.7213C1.66679 15.9075 1.62324 16.0994 1.58013 16.2895C1.55839 16.3853 1.53676 16.4807 1.51308 16.5745C2.27206 16.8362 6.04867 17.6266 6.39414 17.5978C6.41802 17.5464 6.44168 17.4942 6.4655 17.4418L6.46553 17.4417L6.46555 17.4417L6.46558 17.4416L6.4656 17.4415L6.46563 17.4415L6.46564 17.4415C6.52531 17.31 6.58594 17.1765 6.65324 17.0456C7.11649 16.1636 7.79957 15.5198 8.76008 15.2188C10.1446 14.7844 11.5265 14.8446 12.8717 15.368C13.7903 15.7265 14.3975 16.4175 14.5729 17.3963C14.6524 17.8465 14.6783 18.3066 14.7039 18.763C14.7154 18.9673 14.7268 19.1708 14.743 19.3723C14.6919 19.3963 14.657 19.4144 14.6317 19.4276C14.5935 19.4475 14.5771 19.456 14.5598 19.456C14.3846 19.4639 14.2093 19.4665 14.0341 19.4691L14.0339 19.4691L14.0337 19.4691C13.5053 19.4781 12.9766 19.474 12.4481 19.4699C11.1311 19.4597 9.81467 19.4495 8.5036 19.6419C6.93067 19.8722 5.43625 20.3276 4.07793 21.1703C2.5207 22.136 1.39792 23.4499 0.869248 25.2296C0.518544 26.4125 0.492372 27.6086 0.722685 28.8151C1.23304 31.5056 2.75101 33.3193 5.38652 34.149C6.71606 34.5677 8.077 34.6044 9.44579 34.4054C11.6678 34.0835 13.4894 33.0367 14.9314 31.325C14.9718 31.2773 14.9967 31.2155 15.0215 31.1539C15.0321 31.1277 15.0427 31.1014 15.0544 31.0764C15.0963 31.1026 15.1408 31.1287 15.1827 31.1523C15.3784 32.1075 15.5742 33.0601 15.7699 34.0127L15.7701 34.0136L15.7715 34.0207H20.6264L20.6309 33.9513L20.6351 33.8888C20.6429 33.7727 20.65 33.669 20.65 33.5653C20.65 32.0481 20.6503 30.5312 20.6506 29.0144V29.0141V29.0138V29.0135V29.0133V29.013C20.6512 25.9801 20.6517 22.9477 20.65 19.9141C20.65 18.6552 20.5348 17.4042 20.2024 16.1819V16.1846ZM13.5836 27.6374C12.7199 28.6136 11.6102 29.158 10.3383 29.3883C9.74153 29.4956 9.14219 29.5558 8.54547 29.3831C7.46196 29.069 6.7841 28.1111 6.84168 26.9805C6.91235 25.6012 7.75508 24.6171 9.14743 24.3293C9.53216 24.2481 9.93259 24.2141 10.3278 24.2115C11.2176 24.2028 12.1075 24.2057 12.9973 24.2086C13.4422 24.21 13.8872 24.2115 14.3321 24.2115C14.4038 24.2115 14.4755 24.2185 14.5551 24.2263C14.5945 24.2301 14.6359 24.2342 14.6802 24.2377C14.7796 25.541 14.4368 26.6743 13.5862 27.64L13.5836 27.6374ZM129.826 10.6962C132.42 11.6882 133.977 13.5961 134.678 16.2447L134.681 16.2421C134.985 17.3858 135.105 18.5557 135.105 19.736V33.5784C135.105 33.6806 135.098 33.7843 135.09 33.8999L135.09 33.9011L135.09 33.903C135.087 33.9433 135.084 33.9849 135.082 34.0285H130.237C130.038 33.0523 129.842 32.0944 129.633 31.0737C129.616 31.0908 129.601 31.1068 129.587 31.1218C129.561 31.1489 129.538 31.1728 129.517 31.1946L129.517 31.1954L129.516 31.1958C129.465 31.2493 129.426 31.2896 129.389 31.3328C127.947 33.0497 126.12 34.0887 123.901 34.4054C122.168 34.654 120.47 34.5284 118.863 33.7694C116.808 32.7958 115.636 31.1391 115.214 28.9407C114.94 27.5143 114.974 26.0879 115.505 24.7113C116.06 23.2666 117.033 22.1595 118.316 21.3116C119.538 20.5029 120.894 20.0187 122.328 19.7465C123.425 19.5397 124.534 19.4638 125.652 19.4691C126.412 19.4725 127.172 19.4714 127.945 19.4702H127.945H127.946H127.946H127.946C128.338 19.4697 128.734 19.4691 129.135 19.4691L129.14 19.3619C129.186 18.3606 129.231 17.388 128.69 16.4959C128.319 15.8783 127.764 15.4909 127.099 15.2685C125.958 14.889 124.785 14.8314 123.616 15.0957C122.425 15.3653 121.572 16.085 121.046 17.1869C121.022 17.2316 121.002 17.2773 120.982 17.3234C120.97 17.3502 120.959 17.3772 120.946 17.4041C120.912 17.4748 120.878 17.5454 120.818 17.6711C119.938 17.4788 119.058 17.2872 118.174 17.0948L118.173 17.0944L118.169 17.0936L118.163 17.0923L118.155 17.0907C117.434 16.9335 116.709 16.7757 115.979 16.6163C116.102 15.8312 116.353 15.135 116.701 14.4755C117.808 12.3739 119.564 11.0705 121.81 10.3926C123.288 9.9451 124.799 9.84565 126.34 9.97389C127.536 10.076 128.706 10.267 129.826 10.6962ZM123.668 29.4824C124.574 29.5034 125.435 29.3123 126.256 28.9407H126.259C128.235 28.0456 129.3 26.3156 129.135 24.2664C129.121 24.2609 129.109 24.2556 129.098 24.2506L129.081 24.2426C129.054 24.2304 129.036 24.2219 129.018 24.2219C128.571 24.2226 128.124 24.221 127.677 24.2193L127.677 24.2193H127.676C126.579 24.2153 125.483 24.2112 124.388 24.2428C123.657 24.2638 122.943 24.4522 122.312 24.8657C121.441 25.4415 121.074 26.2895 121.174 27.2814C121.294 28.5141 122.422 29.4563 123.668 29.4824ZM200.862 21.9214C199.844 21.1048 198.679 20.5657 197.465 20.1208C196.984 19.9452 196.499 19.7782 196.014 19.6111L196.014 19.6111C195.328 19.3747 194.642 19.1383 193.966 18.8776C193.516 18.7023 193.068 18.4484 192.704 18.1343C191.686 17.2602 191.859 15.7867 193.018 15.1246C193.487 14.8576 194.005 14.7451 194.534 14.7948C195.926 14.9256 197.085 15.5224 197.994 16.5928C198.042 16.6496 198.091 16.7055 198.146 16.7678L198.151 16.7739L198.153 16.7754L198.263 16.9016C198.847 16.3692 199.426 15.8413 200.004 15.3135L200.008 15.3098L200.026 15.2933C200.598 14.7719 201.17 14.2503 201.747 13.7244C201.738 13.7109 201.729 13.6976 201.72 13.6844C201.703 13.658 201.686 13.6322 201.669 13.6069L201.621 13.5319C201.55 13.4225 201.485 13.3219 201.414 13.2245C199.587 10.6675 195.837 9.29607 193.298 9.69388C191.003 10.0551 189.161 11.0888 187.891 13.0517C186.203 15.6585 186.276 20.0632 190.095 22.17C190.92 22.6257 191.803 22.9881 192.678 23.3475L192.691 23.353C193.146 23.5394 193.608 23.7085 194.07 23.8776C194.607 24.074 195.143 24.2705 195.67 24.4941C196.146 24.6956 196.596 24.9888 197.004 25.3081C197.517 25.7085 197.69 26.2843 197.614 26.9307C197.488 28.0142 196.889 28.7156 195.85 29.0035C194.261 29.4432 192.827 29.1187 191.584 28.0325C190.888 27.4254 190.409 26.6585 190.016 25.8341C189.948 25.6898 189.879 25.5455 189.801 25.3846L189.736 25.2505L188.169 26.1088C187.128 26.6791 186.087 27.2494 185.018 27.8336C185.073 27.9521 185.124 28.0669 185.174 28.1784C185.275 28.4044 185.37 28.617 185.481 28.8203C187.708 32.9188 192.249 35.0205 196.884 33.9239C200.53 33.0602 202.851 30.1891 202.958 26.512C203.013 24.6407 202.336 23.1018 200.862 21.924V21.9214ZM146.335 10.2724V13.9417V13.9444C148.806 10.4609 152.03 9.20723 156.215 10.3614C155.972 11.6191 155.732 12.856 155.492 14.0888L155.486 14.1218L155.482 14.1423L155.158 15.8078C155.003 15.7443 154.854 15.6768 154.709 15.6109L154.707 15.6103L154.707 15.6101C154.398 15.4697 154.104 15.3363 153.794 15.2634C152.01 14.8447 150.421 15.2713 149.07 16.5066C148.081 17.4121 147.508 18.5768 147.105 19.8357C146.561 21.5316 146.367 23.2825 146.354 25.0543C146.339 27.0749 146.341 29.0941 146.344 31.1139V31.1141V31.1196C146.345 31.8973 146.346 32.675 146.346 33.4529V34.0156C145.139 34.1104 143.938 34.1302 142.727 34.1502C141.967 34.1628 141.203 34.1754 140.431 34.2067V10.3065C140.763 10.1965 145.645 10.1651 146.335 10.2724ZM214.424 30.3959L214.427 30.4009L214.427 30.4011C214.427 30.3251 214.427 30.2494 214.426 30.1738L214.426 30.1735L214.426 30.1706C214.426 30.0208 214.425 29.8713 214.427 29.7207L214.427 29.7204C214.425 29.8721 214.426 30.0226 214.426 30.1735" fill="#2D2D2D"/>
</svg>
