<svg width="55" height="35" viewBox="0 0 55 35" fill="none" xmlns="http://www.w3.org/2000/svg">
<path d="M22.467 16.0187C22.467 16.0187 27.5474 15.6415 27.5474 9.68397C27.5474 3.72597 23.391 0.818359 18.1259 0.818359H0.800781V34.1125H18.1259C18.1259 34.1125 28.7023 34.4466 28.7023 24.2856C28.7023 24.2857 29.1634 16.0187 22.467 16.0187ZM16.8789 6.73601H18.1259C18.1259 6.73601 20.4809 6.73601 20.4809 10.2001C20.4809 13.6638 19.096 14.166 17.525 14.166H8.43447V6.73601H16.8789ZM17.6364 28.195H8.43447V19.2976H18.1259C18.1259 19.2976 21.636 19.2516 21.636 23.87C21.636 27.7643 19.0143 28.1656 17.6364 28.195ZM42.8078 9.28937C30.0039 9.28937 30.0153 22.082 30.0153 22.082C30.0153 22.082 29.1368 34.8089 42.8078 34.8089C42.8078 34.8089 54.2001 35.4598 54.2001 25.9555H48.3412C48.3412 25.9555 48.5366 29.5346 43.0032 29.5346C43.0032 29.5346 37.1433 29.9274 37.1433 23.7422H54.3955C54.3955 23.7421 56.2832 9.28937 42.8078 9.28937ZM37.0789 19.2976C37.0789 19.2976 37.7943 14.1659 42.9379 14.1659C48.0805 14.1659 48.016 19.2976 48.016 19.2976H37.0789ZM49.3809 6.87973H35.6445V2.77981H49.3809V6.87973Z" fill="#2D2D2D"/>
</svg>
