<svg width="104" height="35" viewBox="0 0 104 35" fill="none" xmlns="http://www.w3.org/2000/svg">
<path fill-rule="evenodd" clip-rule="evenodd" d="M13.8938 12.8961V16.5007L22.5087 16.4968C22.2444 18.4849 21.5741 19.9405 20.5552 20.9594C19.2987 22.2159 17.3375 23.5987 13.8938 23.5987C8.58466 23.5987 4.43234 19.32 4.43234 14.0108C4.43234 8.70165 8.58466 4.42292 13.8938 4.42292C16.7591 4.42292 18.8506 5.5491 20.3943 6.99705L22.9378 4.45356C20.785 2.39655 17.9197 0.818359 13.8976 0.818359C6.62725 0.818359 0.513672 6.74041 0.513672 14.0108C0.513672 21.2812 6.62725 27.2033 13.8976 27.2033C17.8201 27.2033 20.7812 25.9162 23.0987 23.5029C25.4813 21.1203 26.2206 17.7763 26.2206 15.0719C26.2206 14.2675 26.1593 13.5243 26.0405 12.8961H13.8938ZM86.5631 26.6859V1.78728H82.9241V26.6859H86.5631ZM36.1915 27.207C40.8878 27.207 44.7145 23.6025 44.7145 18.7109C44.7145 13.7848 40.8878 10.2147 36.1915 10.2147C31.4952 10.2147 27.6685 13.7848 27.6685 18.7109C27.6685 23.6025 31.4952 27.207 36.1915 27.207ZM36.1915 13.5626C38.7656 13.5626 40.9835 15.6541 40.9835 18.7109C40.9835 21.7332 38.7656 23.8591 36.1915 23.8591C33.6174 23.8591 31.3995 21.737 31.3995 18.7109C31.3995 15.6541 33.6174 13.5626 36.1915 13.5626ZM54.5783 27.207C59.2746 27.207 63.1013 23.6025 63.1013 18.7109C63.1013 13.7848 59.2746 10.2147 54.5783 10.2147C49.882 10.2147 46.0553 13.7886 46.0553 18.7109C46.0553 23.6025 49.882 27.207 54.5783 27.207ZM54.5783 13.5626C57.1525 13.5626 59.3703 15.6541 59.3703 18.7109C59.3703 21.7332 57.1525 23.8591 54.5783 23.8591C52.0042 23.8591 49.7863 21.737 49.7863 18.7109C49.7863 15.6541 52.0042 13.5626 54.5783 13.5626ZM80.7219 10.7318V25.9813C80.7219 32.2557 77.0215 34.8184 72.647 34.8184C68.5292 34.8184 66.0508 32.0642 65.1161 29.8118L68.3645 28.4596C68.9429 29.8425 70.3602 31.4743 72.6432 31.4743C75.4433 31.4743 77.1786 29.7467 77.1786 26.4946V25.2726H77.0483C76.2133 26.303 74.6044 27.2032 72.5742 27.2032C68.3262 27.2032 64.4343 23.5029 64.4343 18.7415C64.4343 13.9456 68.3262 10.2147 72.5742 10.2147C74.6006 10.2147 76.2094 11.1149 77.0483 12.1146H77.1786V10.7318H80.7219ZM77.4429 18.7415C77.4429 15.7498 75.4472 13.5626 72.9075 13.5626C70.3334 13.5626 68.1768 15.7498 68.1768 18.7415C68.1768 21.7025 70.3334 23.8591 72.9075 23.8591C75.4472 23.8591 77.4429 21.7025 77.4429 18.7415ZM100.744 21.5071L103.64 23.4377C102.705 24.8205 100.453 27.2031 96.5612 27.2031C91.7347 27.2031 88.1302 23.4722 88.1302 18.7069C88.1302 13.6544 91.7654 10.2108 96.1437 10.2108C100.553 10.2108 102.709 13.7196 103.414 15.6157L103.801 16.581L92.4434 21.2849C93.3129 22.9895 94.6651 23.859 96.5612 23.859C98.4612 23.859 99.7789 22.9244 100.744 21.5071ZM91.8305 18.4503L99.4227 15.2977C99.0051 14.2367 97.7487 13.4974 96.2701 13.4974C94.374 13.4974 91.7347 15.1713 91.8305 18.4503Z" fill="#2D2D2D"/>
</svg>
